<svg height="2500" viewBox="1.6009846 1.60005504 18.8000308 18.79949552" width="2500" xmlns="http://www.w3.org/2000/svg"><path clip-rule="evenodd" d="m12.05 2.056a1.437 1.437 0 0 0 -2.1 0l-1.393 1.49c-.284.303-.685.47-1.1.455l-2.037-.069a1.438 1.438 0 0 0 -1.486 1.486l.069 2.039c.014.415-.152.816-.456 1.1l-1.49 1.392a1.438 1.438 0 0 0 0 2.101l1.49 1.393c.304.284.47.684.456 1.1l-.07 2.038a1.44 1.44 0 0 0 1.487 1.486l2.038-.069c.415-.014.816.152 1.1.455l1.392 1.49a1.438 1.438 0 0 0 2.102 0l1.393-1.49c.283-.303.684-.47 1.099-.455l2.038.069a1.438 1.438 0 0 0 1.486-1.486l-.068-2.039a1.436 1.436 0 0 1 .455-1.099l1.49-1.393a1.438 1.438 0 0 0 0-2.101l-1.49-1.393a1.435 1.435 0 0 1 -.455-1.1l.068-2.038a1.438 1.438 0 0 0 -1.486-1.486l-2.038.07a1.446 1.446 0 0 1 -1.1-.456zm-5.817 9.367 3.429 3.428 5.683-6.206-1.347-1.247-4.4 4.795-2.072-2.072z" fill="#829aab" fill-rule="evenodd"/></svg>